<svg width="40" height="40" viewBox="0 0 40 40" fill="none" xmlns="http://www.w3.org/2000/svg">
<path fill-rule="evenodd" clip-rule="evenodd" d="M1.6665 4.73C1.6665 3.91756 1.98925 3.13838 2.56373 2.5639C3.13822 1.98941 3.91739 1.66667 4.72984 1.66667H35.2665C35.6691 1.66601 36.0679 1.74477 36.4401 1.89845C36.8122 2.05212 37.1504 2.27768 37.4353 2.56223C37.7201 2.84677 37.946 3.18471 38.1001 3.55668C38.2542 3.92866 38.3334 4.32738 38.3332 4.73V35.2667C38.3336 35.6694 38.2546 36.0682 38.1008 36.4404C37.9469 36.8125 37.7212 37.1507 37.4365 37.4355C37.1519 37.7203 36.8138 37.9463 36.4417 38.1003C36.0697 38.2544 35.6709 38.3336 35.2682 38.3333H4.72984C4.32741 38.3333 3.92893 38.254 3.55717 38.1C3.1854 37.9459 2.84762 37.7201 2.56314 37.4355C2.27867 37.1509 2.05306 36.813 1.89921 36.4411C1.74536 36.0693 1.66629 35.6708 1.6665 35.2683V4.73ZM16.1798 15.6467H21.1448V18.14C21.8615 16.7067 23.6948 15.4167 26.4498 15.4167C31.7315 15.4167 32.9832 18.2717 32.9832 23.51V33.2133H27.6382V24.7033C27.6382 21.72 26.9215 20.0367 25.1015 20.0367C22.5765 20.0367 21.5265 21.8517 21.5265 24.7033V33.2133H16.1798V15.6467ZM7.01317 32.985H12.3598V15.4167H7.01317V32.9833V32.985ZM13.1248 9.68667C13.1349 10.1445 13.0535 10.5996 12.8852 11.0255C12.717 11.4514 12.4654 11.8394 12.1452 12.1667C11.825 12.494 11.4427 12.7541 11.0206 12.9317C10.5985 13.1092 10.1452 13.2007 9.68734 13.2007C9.22944 13.2007 8.77615 13.1092 8.35408 12.9317C7.93201 12.7541 7.54965 12.494 7.22945 12.1667C6.90925 11.8394 6.65766 11.4514 6.48944 11.0255C6.32122 10.5996 6.23976 10.1445 6.24984 9.68667C6.26962 8.78809 6.64048 7.93299 7.28298 7.30448C7.92548 6.67597 8.78854 6.32403 9.68734 6.32403C10.5861 6.32403 11.4492 6.67597 12.0917 7.30448C12.7342 7.93299 13.1051 8.78809 13.1248 9.68667V9.68667Z" fill="white"/>
</svg>
