<svg width="64" height="64" viewBox="0 0 64 64" fill="none" xmlns="http://www.w3.org/2000/svg">
<path d="M16 12C13.8783 12 11.8434 12.8429 10.3431 14.3431C8.84285 15.8434 8 17.8783 8 20V20.804L32 33.728L56 20.808V20C56 17.8783 55.1571 15.8434 53.6569 14.3431C52.1566 12.8429 50.1217 12 48 12H16ZM56 25.348L32.948 37.76C32.6566 37.9168 32.3309 37.999 32 37.999C31.6691 37.999 31.3434 37.9168 31.052 37.76L8 25.348V44C8 46.1217 8.84285 48.1566 10.3431 49.6569C11.8434 51.1571 13.8783 52 16 52H48C50.1217 52 52.1566 51.1571 53.6569 49.6569C55.1571 48.1566 56 46.1217 56 44V25.348Z" fill="white"/>
</svg>
