<svg width="64" height="64" viewBox="0 0 64 64" fill="none" xmlns="http://www.w3.org/2000/svg">
<g clip-path="url(#clip0_114_817)">
<path d="M16 16C16 13.8783 16.8429 11.8434 18.3432 10.3431C19.8435 8.84285 21.8783 8 24 8H40C42.1218 8 44.1566 8.84285 45.6569 10.3431C47.1572 11.8434 48 13.8783 48 16V48C48 50.1217 47.1572 52.1566 45.6569 53.6569C44.1566 55.1571 42.1218 56 40 56H24C21.8783 56 19.8435 55.1571 18.3432 53.6569C16.8429 52.1566 16 50.1217 16 48V16ZM36 44C36 42.9391 35.5786 41.9217 34.8285 41.1716C34.0783 40.4214 33.0609 40 32 40C30.9392 40 29.9218 40.4214 29.1716 41.1716C28.4215 41.9217 28 42.9391 28 44C28 45.0609 28.4215 46.0783 29.1716 46.8284C29.9218 47.5786 30.9392 48 32 48C33.0609 48 34.0783 47.5786 34.8285 46.8284C35.5786 46.0783 36 45.0609 36 44ZM7.22803 18.936C7.47628 18.4671 7.52808 17.9188 7.37205 17.4117C7.21602 16.9046 6.86494 16.4802 6.39603 16.232C5.92713 15.9838 5.37882 15.932 4.87172 16.088C4.36462 16.244 3.94028 16.5951 3.69203 17.064C1.25998 21.6664 -0.00763128 26.7945 3.45634e-05 32C3.45634e-05 37.388 1.33603 42.472 3.69203 46.936C3.81495 47.1682 3.9824 47.3739 4.18481 47.5413C4.38722 47.7088 4.62063 47.8348 4.87172 47.912C5.12281 47.9893 5.38666 48.0163 5.6482 47.9916C5.90974 47.9669 6.16386 47.8909 6.39603 47.768C6.62821 47.6451 6.8339 47.4776 7.00137 47.2752C7.16884 47.0728 7.29479 46.8394 7.37205 46.5883C7.44931 46.3372 7.47636 46.0734 7.45164 45.8118C7.42693 45.5503 7.35095 45.2962 7.22803 45.064C5.10101 41.0384 3.9927 36.553 4.00003 32C4.00003 27.28 5.16803 22.832 7.22803 18.936ZM60.308 17.064C60.0598 16.5951 59.6354 16.244 59.1283 16.088C58.6212 15.932 58.0729 15.9838 57.604 16.232C57.1351 16.4802 56.784 16.9046 56.628 17.4117C56.472 17.9188 56.5238 18.4671 56.772 18.936C58.832 22.832 60 27.276 60 32C60 36.72 58.832 41.168 56.772 45.064C56.5238 45.5329 56.472 46.0812 56.628 46.5883C56.784 47.0954 57.1351 47.5198 57.604 47.768C58.0729 48.0162 58.6212 48.068 59.1283 47.912C59.6354 47.756 60.0598 47.4049 60.308 46.936C62.7401 42.3336 64.0077 37.2055 64 32C64.0077 26.7945 62.7401 21.6664 60.308 17.064V17.064ZM13.36 24.728C13.4717 24.4808 13.5318 24.2135 13.5369 23.9423C13.5419 23.6711 13.4918 23.4017 13.3895 23.1505C13.2872 22.8993 13.1348 22.6715 12.9417 22.4811C12.7486 22.2906 12.5188 22.1414 12.2662 22.0425C12.0136 21.9437 11.7436 21.8972 11.4725 21.906C11.2014 21.9148 10.9349 21.9786 10.6892 22.0936C10.4436 22.2086 10.2239 22.3724 10.0435 22.575C9.86316 22.7776 9.72588 23.0147 9.64003 23.272C8.5539 26.0536 7.99767 29.0139 8.00003 32C8.00003 35.076 8.58003 38.02 9.64003 40.728C9.72588 40.9853 9.86316 41.2224 10.0435 41.425C10.2239 41.6276 10.4436 41.7914 10.6892 41.9064C10.9349 42.0214 11.2014 42.0852 11.4725 42.094C11.7436 42.1028 12.0136 42.0563 12.2662 41.9575C12.5188 41.8586 12.7486 41.7094 12.9417 41.5189C13.1348 41.3285 13.2872 41.1007 13.3895 40.8495C13.4918 40.5983 13.5419 40.3289 13.5369 40.0577C13.5318 39.7865 13.4717 39.5192 13.36 39.272C12.4572 36.954 11.9959 34.4876 12 32C12 29.432 12.48 26.98 13.36 24.728ZM54.36 23.272C54.149 22.8047 53.7666 22.4362 53.2917 22.2428C52.8168 22.0494 52.2858 22.0457 51.8083 22.2326C51.3308 22.4195 50.9433 22.7827 50.7259 23.247C50.5085 23.7114 50.4778 24.2416 50.64 24.728C51.52 26.98 52 29.432 52 32C52 34.568 51.52 37.02 50.64 39.272C50.4778 39.7584 50.5085 40.2886 50.7259 40.753C50.9433 41.2173 51.3308 41.5805 51.8083 41.7674C52.2858 41.9543 52.8168 41.9506 53.2917 41.7572C53.7666 41.5638 54.149 41.1953 54.36 40.728C55.424 38.02 56 35.076 56 32C56 28.924 55.42 25.98 54.36 23.272V23.272Z" fill="white"/>
</g>
<defs>
<clipPath id="clip0_114_817">
<rect width="64" height="64" fill="white"/>
</clipPath>
</defs>
</svg>
